# xmcd CD database file
#
# Track frame offsets:
#	150
#	24385
#	53106
#	86404
#	112184
#	140852
#	161978
#	189488
#	211926
#	240789
#	284475
#
# Disc length: 4230 seconds
#
# Revision: 0
# Processed by: cddbd v1.5PL3 Copyright (c) Steve Scherf et al.
# Submitted via: CDex 1.51
#
DISCID=9c10840b
DTITLE=Chick Corea - Past, Present and Futures
DYEAR=2001
DGENRE=Jazz
TTITLE0=Fingerprints
TTITLE1=Jitterbug Waltz
TTITLE2=Cloud Candy
TTITLE3=Dignity
TTITLE4=Rhumba Flamenco
TTITLE5=Anna's Tango
TTITLE6=Chelsea Shuffle
TTITLE7=Nostalgia
TTITLE8=Revolving Door
TTITLE9=Past, Present and Futures
TTITLE10=Life Line
EXTD=YEAR: 2001
EXTT0=
EXTT1=
EXTT2=
EXTT3=
EXTT4=
EXTT5=
EXTT6=
EXTT7=
EXTT8=
EXTT9=
EXTT10=
PLAYORDER=
